custom-analysis
version=1
nRows=4
nColumns=98
inDegrees=no

This file contains tibia displacement and acting force.

Units are S.I. units (seconds, meters, Newtons, ...)
Angles are in degrees.

endheader
time	APT	SIT	knee_angle	aACL_R_force	pACL_R_force	aPCL_R_force	pPCL_R_force	aMCL_R_force	mMCL_R_force	pMCL_R_force	aLCL_R_force	mLCL_R_force	pLCL_R_force	aPCL_L_force	pPCL_L_force	aMCL_L_force	aLCL_L_force	aACL_R_length	pACL_R_length	aPCL_R_length	pPCL_R_length	aMCL_R_length	mMCL_R_length	pMCL_R_length	aLCL_R_length	mLCL_R_length	pLCL_R_length	aPCL_L_length	pPCL_L_length	aMCL_L_length	aLCL_L_length	aACL_R_strain	pACL_R_strain	aPCL_R_strain	pPCL_R_strain	aMCL_R_strain	mMCL_R_strain	pMCL_R_strain	aLCL_R_strain	mLCL_R_strain	pLCL_R_strain	aPCL_L_strain	pPCL_L_strain	aMCL_L_strain	aLCL_L_strain	femur_lat_meniscii_r.femur_lat_r.force.X	femur_lat_meniscii_r.femur_lat_r.force.Y	femur_lat_meniscii_r.femur_lat_r.force.Z	femur_lat_meniscii_r.femur_lat_r.torque.X	femur_lat_meniscii_r.femur_lat_r.torque.Y	femur_lat_meniscii_r.femur_lat_r.torque.Z	femur_lat_meniscii_r.meniscus_lat_r.force.X	femur_lat_meniscii_r.meniscus_lat_r.force.Y	femur_lat_meniscii_r.meniscus_lat_r.force.Z	femur_lat_meniscii_r.meniscus_lat_r.torque.X	femur_lat_meniscii_r.meniscus_lat_r.torque.Y	femur_lat_meniscii_r.meniscus_lat_r.torque.Z	femur_med_meniscii_r.femur_med_r.force.X	femur_med_meniscii_r.femur_med_r.force.Y	femur_med_meniscii_r.femur_med_r.force.Z	femur_med_meniscii_r.femur_med_r.torque.X	femur_med_meniscii_r.femur_med_r.torque.Y	femur_med_meniscii_r.femur_med_r.torque.Z	femur_med_meniscii_r.meniscus_med_r.force.X	femur_med_meniscii_r.meniscus_med_r.force.Y	femur_med_meniscii_r.meniscus_med_r.force.Z	femur_med_meniscii_r.meniscus_med_r.torque.X	femur_med_meniscii_r.meniscus_med_r.torque.Y	femur_med_meniscii_r.meniscus_med_r.torque.Z	femur_med_tibia_r.tibia_upper_r.force.X	femur_med_tibia_r.tibia_upper_r.force.Y	femur_med_tibia_r.tibia_upper_r.force.Z	femur_med_tibia_r.tibia_upper_r.torque.X	femur_med_tibia_r.tibia_upper_r.torque.Y	femur_med_tibia_r.tibia_upper_r.torque.Z	femur_med_tibia_r.femur_med_r.force.X	femur_med_tibia_r.femur_med_r.force.Y	femur_med_tibia_r.femur_med_r.force.Z	femur_med_tibia_r.femur_med_r.torque.X	femur_med_tibia_r.femur_med_r.torque.Y	femur_med_tibia_r.femur_med_r.torque.Z	femur_lat_tibia_r.tibia_upper_r.force.X	femur_lat_tibia_r.tibia_upper_r.force.Y	femur_lat_tibia_r.tibia_upper_r.force.Z	femur_lat_tibia_r.tibia_upper_r.torque.X	femur_lat_tibia_r.tibia_upper_r.torque.Y	femur_lat_tibia_r.tibia_upper_r.torque.Z	femur_lat_tibia_r.femur_lat_r.force.X	femur_lat_tibia_r.femur_lat_r.force.Y	femur_lat_tibia_r.femur_lat_r.force.Z	femur_lat_tibia_r.femur_lat_r.torque.X	femur_lat_tibia_r.femur_lat_r.torque.Y	femur_lat_tibia_r.femur_lat_r.torque.Z	femur_lat_meniscii_force_r	femur_med_meniscii_force_r	femur_lat_tibia_force_r	femur_med_tibia_force_r
      0.07410492	      0.00318078	      0.00288863	     14.04193596	      0.50048031	     -3.65337181	      0.00000000	     30.11903400	      0.00000000	    -16.01790394	    -35.94068540	     -7.13003252	      0.00000000	      0.00000000	      0.00000000	      0.00000000	      0.00000001	      0.00000000	      0.03200024	      0.02589514	      0.03084418	      0.03017231	      0.05654929	      0.06000208	      0.06074137	      0.05676346	      0.05433853	      0.05164212	      0.01525851	      0.01651186	      0.06550154	      0.04489616	      0.03208275	      0.03337923	     -0.00807575	      0.00951927	     -0.05793582	      0.00348840	      0.03428303	      0.01404604	     -0.03515831	     -0.01338439	      0.00000079	     -0.32847694	      0.00000060	     -0.00000086	    147.26231069	    496.01814965	    -43.68537387	      5.38807785	      3.58175182	     58.72083270	   -147.26231069	   -496.01814965	     43.68537387	     13.70352593	     -4.14786126	     -0.79130381	     45.49964910	    673.01565613	     72.47546154	    -12.72811718	     -1.10985091	     17.91618992	    -45.49964910	   -673.01565613	    -72.47546154	    -11.83366886	      0.67124163	      1.57652564	      0.00000000	      0.00000000	      0.00000000	      0.00000000	      0.00000000	      0.00000000	      0.00000000	      0.00000000	      0.00000000	      0.00000000	      0.00000000	      0.00000000	      0.00000000	      0.00000000	      0.00000000	      0.00000000	      0.00000000	      0.00000000	      0.00000000	      0.00000000	      0.00000000	      0.00000000	      0.00000000	      0.00000000	    519.25774411	    678.43421493	      0.00000000	      0.00000000
      0.07583238	      0.00330477	      0.00303350	     14.60140520	     -0.70358016	     -5.39669171	      0.00000000	     34.85431375	      0.00000000	    -15.43055370	    -36.64309469	     -7.26352765	      0.00000000	      0.00000000	      0.00000000	      0.00000000	      0.00000001	      0.00000000	      0.03196562	      0.02584121	      0.03092485	      0.03021061	      0.05657377	      0.05996345	      0.06063416	      0.05674704	      0.05428395	      0.05155107	      0.01525851	      0.01651186	      0.06550154	      0.04489616	      0.03096627	      0.03122709	     -0.00548169	      0.01080076	     -0.05752789	      0.00284227	      0.03245747	      0.01375267	     -0.03612748	     -0.01512394	      0.00000079	     -0.32847694	      0.00000060	     -0.00000086	    144.14465688	    496.81392953	    -42.36425769	      4.77150484	      3.51559299	     57.33618561	   -144.14465688	   -496.81392953	     42.36425769	     13.80979403	     -4.06193799	     -0.52029229	     51.56738233	    639.29747214	     75.58801209	    -14.83260259	     -1.26780207	     20.37136399	    -51.56738233	   -639.29747214	    -75.58801209	    -11.08271279	      0.77785200	      1.45231910	      0.00000000	      0.00000000	      0.00000000	      0.00000000	      0.00000000	      0.00000000	      0.00000000	      0.00000000	      0.00000000	      0.00000000	      0.00000000	      0.00000000	      0.00000000	      0.00000000	      0.00000000	      0.00000000	      0.00000000	      0.00000000	      0.00000000	      0.00000000	      0.00000000	      0.00000000	      0.00000000	      0.00000000	    519.03419252	    645.81266662	      0.00000000	      0.00000000
      0.07672431	      0.00336932	      0.00310908	     14.89396419	     -1.22162082	     -6.15677472	      0.00000000	     37.19378725	      0.00000000	    -15.28420814	    -37.14015047	     -7.59011534	      0.00000000	      0.00000000	      0.00000000	      0.00000000	      0.00000001	      0.00000000	      0.03194754	      0.02581306	      0.03096802	      0.03023176	      0.05658800	      0.05994468	      0.06057962	      0.05673881	      0.05425580	      0.05150394	      0.01525851	      0.01651186	      0.06550154	      0.04489616	      0.03038298	      0.03010362	     -0.00409334	      0.01150837	     -0.05729084	      0.00252842	      0.03152881	      0.01360572	     -0.03662727	     -0.01602438	      0.00000079	     -0.32847694	      0.00000060	     -0.00000086	    144.72521348	    493.50739214	    -42.37171504	      4.84696918	      3.53095583	     57.55992345	   -144.72521348	   -493.50739214	     42.37171504	     13.71695000	     -4.07519649	     -0.49165566	     51.16057945	    623.38486020	     74.23807121	    -14.67105580	     -1.27094400	     20.19761326	    -51.16057945	   -623.38486020	    -74.23807121	    -10.80386502	      0.78069355	      1.47491125	      0.00000000	      0.00000000	      0.00000000	      0.00000000	      0.00000000	      0.00000000	      0.00000000	      0.00000000	      0.00000000	      0.00000000	      0.00000000	      0.00000000	      0.00000000	      0.00000000	      0.00000000	      0.00000000	      0.00000000	      0.00000000	      0.00000000	      0.00000000	      0.00000000	      0.00000000	      0.00000000	      0.00000000	    516.03323124	    629.87092332	      0.00000000	      0.00000000
      0.07761624	      0.00343310	      0.00318618	     15.18887549	     -2.01277257	     -7.16442604	      0.00000000	     39.04694494	      0.00000000	    -15.81179713	    -38.30015310	     -8.72505377	      0.00000000	      0.00000000	      0.00000000	      0.00000000	      0.00000001	      0.00000000	      0.03192832	      0.02578388	      0.03101179	      0.03025337	      0.05660214	      0.05992560	      0.06052451	      0.05672994	      0.05422684	      0.05145590	      0.01525851	      0.01651186	      0.06550154	      0.04489616	      0.02976322	      0.02893940	     -0.00268548	      0.01223132	     -0.05705528	      0.00220929	      0.03059029	      0.01344720	     -0.03714155	     -0.01694212	      0.00000079	     -0.32847694	      0.00000060	     -0.00000086	    142.17977266	    493.15508268	    -41.88657840	      4.64034366	      3.46845867	     56.45416911	   -142.17977266	   -493.15508268	     41.88657840	     13.73167051	     -3.99750295	     -0.32096349	     46.00237409	    603.02444813	     72.44615056	    -14.41329663	     -1.10838501	     17.99629893	    -46.00237409	   -603.02444813	    -72.44615056	    -10.47278565	      0.64205506	      1.68766240	      0.00000000	      0.00000000	      0.00000000	      0.00000000	      0.00000000	      0.00000000	      0.00000000	      0.00000000	      0.00000000	      0.00000000	      0.00000000	      0.00000000	      0.00000000	      0.00000000	      0.00000000	      0.00000000	      0.00000000	      0.00000000	      0.00000000	      0.00000000	      0.00000000	      0.00000000	      0.00000000	      0.00000000	    514.94806415	    609.10027762	      0.00000000	      0.00000000
